<svg width="7" height="10" viewBox="0 0 7 10" fill="none" xmlns="http://www.w3.org/2000/svg">
<path d="M0.478313 9.584C0.392979 9.584 0.318313 9.55733 0.254313 9.504C0.190313 9.45067 0.158313 9.37067 0.158313 9.264V8.56C0.158313 8.432 0.184979 8.33067 0.238313 8.256C0.302313 8.18133 0.398313 8.10667 0.526313 8.032L4.79831 5.104L0.526313 2.176C0.398313 2.09067 0.302313 2.01067 0.238313 1.936C0.184979 1.86133 0.158313 1.76 0.158313 1.632V0.927999C0.158313 0.821333 0.190313 0.741333 0.254313 0.688C0.318313 0.634666 0.392979 0.608 0.478313 0.608C0.542313 0.608 0.611646 0.629333 0.686313 0.672C0.760979 0.704 0.819646 0.735999 0.862313 0.768L5.88631 4.224C6.05698 4.34133 6.17431 4.45333 6.23831 4.56C6.31298 4.66667 6.35031 4.8 6.35031 4.96V5.232C6.35031 5.38133 6.31298 5.51467 6.23831 5.632C6.17431 5.73867 6.05698 5.85067 5.88631 5.968L0.862313 9.424C0.819646 9.456 0.760979 9.49333 0.686313 9.536C0.611646 9.568 0.542313 9.584 0.478313 9.584Z" fill="white"/>
</svg>
